<svg xmlns="http://www.w3.org/2000/svg" width="96" height="96" viewBox="0 0 96 96">
  <path fill="#ffffff" fill-rule="evenodd" d="M42 12h12l2.6 12.2c2.2.8 4.3 2 6.2 3.5l11.9-3.8 8.5 8.5-3.8 11.9c1.5 1.9 2.7 4 3.5 6.2L95 53v12l-12.2 2.6c-.8 2.2-2 4.3-3.5 6.2l3.8 11.9-8.5 8.5-11.9-3.8c-1.9 1.5-4 2.7-6.2 3.5L54 106H42l-2.6-12.2c-2.2-.8-4.3-2-6.2-3.5l-11.9 3.8-8.5-8.5 3.8-11.9c-1.5-1.9-2.7-4-3.5-6.2L1 65V53l12.2-2.6c.8-2.2 2-4.3 3.5-6.2l-3.8-11.9 8.5-8.5 11.9 3.8c1.9-1.5 4-2.7 6.2-3.5L42 12zm6 25a16 16 0 1 0 0 32 16 16 0 0 0 0-32z" transform="translate(0 -11) scale(.96)"/>
</svg>
